<svg width="218" height="133" viewBox="0 0 218 133" fill="none" xmlns="http://www.w3.org/2000/svg">
<path d="M21.2126 109.725H216.368" stroke="#132C47"/>
<path d="M21.2126 83.125H216.368" stroke="#132C47"/>
<path d="M21.2126 56.525H216.368" stroke="#132C47"/>
<path d="M21.2126 29.925H216.368" stroke="#132C47"/>
<path d="M21.2126 3.325H216.368" stroke="#132C47"/>
<path d="M21.2126 3.325V109.725" stroke="#132C47"/>
<path d="M70.0015 3.325V109.725" stroke="#132C47"/>
<path d="M118.79 3.325V109.725" stroke="#132C47"/>
<path d="M167.579 3.325V109.725" stroke="#132C47"/>
<path d="M216.368 3.325V109.725" stroke="#132C47"/>
<path d="M21.2126 91.6371L70.0015 45.8851L118.79 73.5491L167.579 48.0131L216.368 90.5731V109.725H167.579H118.79H70.0015H21.2126V91.6371Z" fill="url(#paint0_linear_1_217)"/>
<path d="M21.2126 91.6371L70.0015 45.8851L118.79 73.5491L167.579 48.0131L216.368 90.5731" fill="url(#paint1_linear_1_217)"/>
<path d="M21.2126 55.4609L70.0015 87.3809L118.79 42.6929L167.579 3.32495L216.368 16.093V109.725H167.579H118.79H70.0015H21.2126V55.4609Z" fill="url(#paint2_linear_1_217)"/>
<defs>
<linearGradient id="paint0_linear_1_217" x1="118.79" y1="45.8851" x2="119.261" y2="103.32" gradientUnits="userSpaceOnUse">
<stop stop-color="#2A7BFF"/>
<stop offset="1" stop-color="#95B9F3" stop-opacity="0"/>
</linearGradient>
<linearGradient id="paint1_linear_1_217" x1="118.79" y1="45.8851" x2="119.032" y2="87.0484" gradientUnits="userSpaceOnUse">
<stop stop-color="#2A7BFF"/>
<stop offset="1" stop-color="#95B9F3" stop-opacity="0"/>
</linearGradient>
<linearGradient id="paint2_linear_1_217" x1="118.79" y1="3.32495" x2="118.79" y2="109.725" gradientUnits="userSpaceOnUse">
<stop stop-color="#537EE7"/>
<stop offset="1" stop-color="#2400FF" stop-opacity="0"/>
</linearGradient>
</defs>
</svg>
