<svg width="24" height="24" viewBox="0 0 24 24" fill="none" xmlns="http://www.w3.org/2000/svg">
<circle cx="12" cy="12" r="12" transform="rotate(90 12 12)" fill="#537EE7"/>
<path d="M6.23747 11.3871L11.5567 16.8226C11.6201 16.8871 11.6887 16.9329 11.7625 16.96C11.8364 16.9871 11.9156 17.0004 12 17C12.0844 17 12.1636 16.9867 12.2375 16.96C12.3113 16.9333 12.3799 16.8875 12.4433 16.8226L17.7784 11.3871C17.9261 11.2366 18 11.0484 18 10.8226C18 10.5968 17.9208 10.4032 17.7625 10.2419C17.6042 10.0806 17.4195 10 17.2084 10C16.9974 10 16.8127 10.0806 16.6544 10.2419L12 14.9839L7.34565 10.2419C7.19789 10.0914 7.01573 10.0161 6.79916 10.0161C6.58259 10.0161 6.39536 10.0968 6.23747 10.2581C6.07916 10.4194 6 10.6075 6 10.8226C6 11.0376 6.07916 11.2258 6.23747 11.3871Z" fill="#E4E4E4"/>
</svg>
