<svg width="40" height="40" viewBox="0 0 40 40" fill="none" xmlns="http://www.w3.org/2000/svg">
<g filter="url(#filter0_f_1_194)">
<circle cx="20" cy="20" r="17.5" stroke="white" stroke-width="3"/>
</g>
<path d="M17.624 32V14.912H21.624V32H17.624ZM19.64 12.096C18.8933 12.096 18.2747 11.8613 17.784 11.392C17.3147 10.9227 17.08 10.3573 17.08 9.696C17.08 9.01333 17.3147 8.448 17.784 8C18.2747 7.53067 18.8933 7.296 19.64 7.296C20.3867 7.296 20.9947 7.52 21.464 7.968C21.9547 8.39467 22.2 8.93867 22.2 9.6C22.2 10.304 21.9653 10.9013 21.496 11.392C21.0267 11.8613 20.408 12.096 19.64 12.096Z" fill="white"/>
<defs>
<filter id="filter0_f_1_194" x="0.933333" y="0.933333" width="38.1333" height="38.1333" filterUnits="userSpaceOnUse" color-interpolation-filters="sRGB">
<feFlood flood-opacity="0" result="BackgroundImageFix"/>
<feBlend mode="normal" in="SourceGraphic" in2="BackgroundImageFix" result="shape"/>
<feGaussianBlur stdDeviation="0.0333333" result="effect1_foregroundBlur_1_194"/>
</filter>
</defs>
</svg>
