<svg width="26" height="37" viewBox="0 0 26 37" fill="none" xmlns="http://www.w3.org/2000/svg">
<path d="M11.1 24.4C11.1 23.1667 11.3 22.0833 11.7 21.15C12.1 20.2167 12.6167 19.3833 13.25 18.65C13.8833 17.9167 14.55 17.2333 15.25 16.6C15.9833 15.9667 16.6667 15.35 17.3 14.75C17.9333 14.15 18.45 13.5167 18.85 12.85C19.25 12.1833 19.45 11.4333 19.45 10.6C19.45 9.2 18.8833 8.06667 17.75 7.2C16.6167 6.33333 15.1 5.9 13.2 5.9C11.3667 5.9 9.76667 6.23333 8.4 6.9C7.06667 7.56667 5.95 8.51666 5.05 9.75L0.2 6.6C1.6 4.7 3.43333 3.21666 5.7 2.15C7.96667 1.05 10.65 0.499998 13.75 0.499998C16.1833 0.499998 18.3167 0.866665 20.15 1.6C21.9833 2.3 23.4167 3.33333 24.45 4.7C25.4833 6.03333 26 7.66667 26 9.6C26 10.9333 25.7833 12.1 25.35 13.1C24.95 14.1 24.4167 14.9833 23.75 15.75C23.1167 16.4833 22.4333 17.1833 21.7 17.85C20.9667 18.4833 20.2667 19.1167 19.6 19.75C18.9667 20.3833 18.45 21.0667 18.05 21.8C17.65 22.5333 17.45 23.4 17.45 24.4H11.1ZM14.3 36.35C13.1333 36.35 12.1667 35.9667 11.4 35.2C10.6667 34.4333 10.3 33.5167 10.3 32.45C10.3 31.3833 10.6667 30.4833 11.4 29.75C12.1667 28.9833 13.1333 28.6 14.3 28.6C15.4667 28.6 16.4167 28.9833 17.15 29.75C17.8833 30.4833 18.25 31.3833 18.25 32.45C18.25 33.5167 17.8833 34.4333 17.15 35.2C16.4167 35.9667 15.4667 36.35 14.3 36.35Z" fill="white"/>
</svg>
